<?xml version="1.0" standalone="no"?>
<!DOCTYPE svg PUBLIC "-//W3C//DTD SVG 20010904//EN"
 "http://www.w3.org/TR/2001/REC-SVG-20010904/DTD/svg10.dtd">
<svg version="1.0" xmlns="http://www.w3.org/2000/svg"
 width="512.000000pt" height="512.000000pt" viewBox="0 0 512.000000 512.000000"
 preserveAspectRatio="xMidYMid meet">
<metadata>
Created by potrace 1.14, written by Peter Selinger 2001-2017
</metadata>
<g transform="translate(0.000000,512.000000) scale(0.100000,-0.100000)"
fill="#000000" stroke="none">
<path d="M1869 2922 c-52 -26 -119 -104 -119 -136 0 -11 90 -46 118 -46 6 0
19 14 27 31 36 69 143 71 171 4 33 -80 6 -129 -127 -231 -55 -43 -116 -98
-135 -122 -39 -51 -64 -125 -64 -189 l0 -43 245 0 245 0 0 60 0 60 -160 0
c-88 0 -160 2 -160 5 0 18 41 61 108 113 158 123 192 175 192 291 0 108 -34
170 -114 207 -74 34 -156 33 -227 -4z"/>
<path d="M4209 2922 c-52 -26 -119 -104 -119 -136 0 -11 90 -46 118 -46 6 0
19 14 27 31 36 69 143 71 171 4 33 -80 6 -129 -127 -231 -55 -43 -116 -98
-135 -122 -39 -51 -64 -125 -64 -189 l0 -43 245 0 245 0 0 60 0 60 -160 0
c-88 0 -160 2 -160 5 0 18 41 61 108 113 158 123 192 175 192 291 0 108 -34
170 -114 207 -74 34 -156 33 -227 -4z"/>
<path d="M635 2918 c-6 -20 -55 -314 -55 -331 0 -9 23 -23 60 -37 52 -19 64
-21 90 -10 16 7 49 12 72 12 73 -1 125 -78 107 -160 -9 -43 -34 -70 -80 -83
-31 -10 -43 -9 -76 7 -21 11 -47 34 -58 52 -20 32 -21 32 -74 26 -77 -8 -84
-12 -76 -43 10 -43 60 -104 110 -136 40 -25 61 -30 122 -34 174 -8 280 95 271
264 -4 91 -40 155 -112 200 -42 25 -62 31 -128 34 -43 2 -78 6 -78 10 0 4 5
33 11 64 l12 57 118 0 119 0 0 60 0 60 -175 0 c-132 0 -177 -3 -180 -12z"/>
<path d="M1265 2865 l-70 -64 73 -1 72 0 0 -305 0 -305 70 0 70 0 0 370 0 370
-72 0 -73 0 -70 -65z"/>
<path d="M2975 2918 c-6 -20 -55 -314 -55 -331 0 -9 23 -23 60 -37 52 -19 64
-21 90 -10 16 7 49 12 72 12 73 -1 125 -78 107 -160 -9 -43 -34 -70 -80 -83
-31 -10 -43 -9 -76 7 -21 11 -47 34 -58 52 -20 32 -21 32 -74 26 -77 -8 -84
-12 -76 -43 10 -43 60 -104 110 -136 40 -25 61 -30 122 -34 174 -8 280 95 271
264 -4 91 -40 155 -112 200 -42 25 -62 31 -128 34 -43 2 -78 6 -78 10 0 4 5
33 11 64 l12 57 118 0 119 0 0 60 0 60 -175 0 c-132 0 -177 -3 -180 -12z"/>
<path d="M3605 2865 l-70 -64 73 -1 72 0 0 -305 0 -305 70 0 70 0 0 370 0 370
-72 0 -73 0 -70 -65z"/>
<path d="M2321 2719 c6 -12 42 -73 80 -136 38 -62 69 -116 69 -118 0 -3 -35
-60 -78 -127 -43 -68 -82 -129 -86 -135 -5 -10 12 -13 76 -13 l83 0 34 63 c61
111 53 109 103 18 l43 -81 83 0 c78 0 82 1 73 19 -6 10 -44 73 -85 139 l-76
122 85 130 c47 71 85 132 85 135 0 3 -37 5 -82 5 l-83 0 -44 -81 -43 -81 -17
29 c-10 15 -30 52 -46 81 l-28 52 -79 0 c-77 0 -78 0 -67 -21z"/>
</g>
</svg>
